<mxfile host="app.diagrams.net" modified="2023-11-22T16:26:50.764Z" agent="Mozilla/5.0 (Macintosh; Intel Mac OS X 10.15; rv:109.0) Gecko/20100101 Firefox/119.0" etag="MD_UlqTn42XnuZ9kg6Yp" version="22.1.3" type="github">
  <diagram name="Page-1" id="8bP9lLz0iaxikmqtyBsx">
    <mxGraphModel dx="1434" dy="809" grid="1" gridSize="10" guides="1" tooltips="1" connect="1" arrows="1" fold="1" page="1" pageScale="1" pageWidth="850" pageHeight="1100" math="0" shadow="0">
      <root>
        <mxCell id="0" />
        <mxCell id="1" parent="0" />
        <mxCell id="g26dP2fM7fdV6ljGe8Ew-8" style="edgeStyle=orthogonalEdgeStyle;rounded=0;orthogonalLoop=1;jettySize=auto;html=1;entryX=0.5;entryY=0;entryDx=0;entryDy=0;" parent="1" source="g26dP2fM7fdV6ljGe8Ew-1" target="g26dP2fM7fdV6ljGe8Ew-2" edge="1">
          <mxGeometry relative="1" as="geometry" />
        </mxCell>
        <mxCell id="g26dP2fM7fdV6ljGe8Ew-1" value="&lt;div&gt;Comcast&lt;/div&gt;" style="image;aspect=fixed;perimeter=ellipsePerimeter;html=1;align=center;shadow=0;dashed=0;spacingTop=3;image=img/lib/active_directory/internet_cloud.svg;" parent="1" vertex="1">
          <mxGeometry x="70" y="130" width="50" height="31.5" as="geometry" />
        </mxCell>
        <mxCell id="g26dP2fM7fdV6ljGe8Ew-7" style="edgeStyle=orthogonalEdgeStyle;rounded=0;orthogonalLoop=1;jettySize=auto;html=1;" parent="1" source="g26dP2fM7fdV6ljGe8Ew-2" target="g26dP2fM7fdV6ljGe8Ew-3" edge="1">
          <mxGeometry relative="1" as="geometry" />
        </mxCell>
        <mxCell id="g26dP2fM7fdV6ljGe8Ew-2" value="Comcast Modem" style="image;html=1;image=img/lib/clip_art/networking/Modem_128x128.png" parent="1" vertex="1">
          <mxGeometry x="55" y="280" width="80" height="80" as="geometry" />
        </mxCell>
        <mxCell id="g26dP2fM7fdV6ljGe8Ew-5" style="edgeStyle=orthogonalEdgeStyle;rounded=0;orthogonalLoop=1;jettySize=auto;html=1;entryX=0;entryY=0.5;entryDx=0;entryDy=0;" parent="1" source="g26dP2fM7fdV6ljGe8Ew-3" target="g26dP2fM7fdV6ljGe8Ew-4" edge="1">
          <mxGeometry relative="1" as="geometry" />
        </mxCell>
        <mxCell id="g26dP2fM7fdV6ljGe8Ew-3" value="&lt;div&gt;Firewall with&lt;/div&gt;&lt;div&gt;Proxmox&lt;/div&gt;" style="image;html=1;image=img/lib/clip_art/networking/Firewall-page1_128x128.png" parent="1" vertex="1">
          <mxGeometry x="55" y="510" width="80" height="80" as="geometry" />
        </mxCell>
        <mxCell id="g26dP2fM7fdV6ljGe8Ew-6" style="edgeStyle=orthogonalEdgeStyle;rounded=0;orthogonalLoop=1;jettySize=auto;html=1;exitX=0;exitY=0.75;exitDx=0;exitDy=0;entryX=1;entryY=0.75;entryDx=0;entryDy=0;" parent="1" source="g26dP2fM7fdV6ljGe8Ew-4" target="g26dP2fM7fdV6ljGe8Ew-3" edge="1">
          <mxGeometry relative="1" as="geometry">
            <mxPoint x="160" y="620" as="targetPoint" />
          </mxGeometry>
        </mxCell>
        <mxCell id="g26dP2fM7fdV6ljGe8Ew-11" style="edgeStyle=orthogonalEdgeStyle;rounded=0;orthogonalLoop=1;jettySize=auto;html=1;exitX=0;exitY=0;exitDx=0;exitDy=0;entryX=0.5;entryY=1;entryDx=0;entryDy=0;" parent="1" source="g26dP2fM7fdV6ljGe8Ew-4" target="g26dP2fM7fdV6ljGe8Ew-10" edge="1">
          <mxGeometry relative="1" as="geometry" />
        </mxCell>
        <mxCell id="g26dP2fM7fdV6ljGe8Ew-17" style="edgeStyle=orthogonalEdgeStyle;rounded=1;orthogonalLoop=1;jettySize=auto;html=1;" parent="1" source="g26dP2fM7fdV6ljGe8Ew-4" target="g26dP2fM7fdV6ljGe8Ew-14" edge="1">
          <mxGeometry relative="1" as="geometry">
            <Array as="points">
              <mxPoint x="350" y="470" />
              <mxPoint x="590" y="470" />
            </Array>
          </mxGeometry>
        </mxCell>
        <mxCell id="g26dP2fM7fdV6ljGe8Ew-18" style="edgeStyle=orthogonalEdgeStyle;rounded=0;orthogonalLoop=1;jettySize=auto;html=1;entryX=0;entryY=0;entryDx=0;entryDy=0;exitX=0;exitY=1;exitDx=0;exitDy=0;" parent="1" source="g26dP2fM7fdV6ljGe8Ew-4" target="g26dP2fM7fdV6ljGe8Ew-16" edge="1">
          <mxGeometry relative="1" as="geometry" />
        </mxCell>
        <mxCell id="g26dP2fM7fdV6ljGe8Ew-19" style="edgeStyle=orthogonalEdgeStyle;rounded=1;orthogonalLoop=1;jettySize=auto;html=1;entryX=0.5;entryY=0;entryDx=0;entryDy=0;" parent="1" source="g26dP2fM7fdV6ljGe8Ew-4" target="g26dP2fM7fdV6ljGe8Ew-16" edge="1">
          <mxGeometry relative="1" as="geometry" />
        </mxCell>
        <mxCell id="g26dP2fM7fdV6ljGe8Ew-20" style="edgeStyle=orthogonalEdgeStyle;rounded=1;orthogonalLoop=1;jettySize=auto;html=1;exitX=1;exitY=0;exitDx=0;exitDy=0;" parent="1" source="g26dP2fM7fdV6ljGe8Ew-4" target="g26dP2fM7fdV6ljGe8Ew-15" edge="1">
          <mxGeometry relative="1" as="geometry">
            <mxPoint x="620" y="290" as="targetPoint" />
            <Array as="points">
              <mxPoint x="697" y="510" />
            </Array>
          </mxGeometry>
        </mxCell>
        <mxCell id="g26dP2fM7fdV6ljGe8Ew-22" style="edgeStyle=orthogonalEdgeStyle;rounded=0;orthogonalLoop=1;jettySize=auto;html=1;entryX=0;entryY=0.5;entryDx=0;entryDy=0;" parent="1" source="g26dP2fM7fdV6ljGe8Ew-4" target="g26dP2fM7fdV6ljGe8Ew-21" edge="1">
          <mxGeometry relative="1" as="geometry" />
        </mxCell>
        <mxCell id="g26dP2fM7fdV6ljGe8Ew-4" value="&lt;div&gt;8 Port Switch&lt;/div&gt;" style="image;html=1;image=img/lib/clip_art/networking/Switch_128x128.png" parent="1" vertex="1">
          <mxGeometry x="310" y="510" width="80" height="80" as="geometry" />
        </mxCell>
        <mxCell id="g26dP2fM7fdV6ljGe8Ew-13" value="" style="edgeStyle=orthogonalEdgeStyle;rounded=0;orthogonalLoop=1;jettySize=auto;html=1;" parent="1" source="g26dP2fM7fdV6ljGe8Ew-10" target="g26dP2fM7fdV6ljGe8Ew-12" edge="1">
          <mxGeometry relative="1" as="geometry" />
        </mxCell>
        <mxCell id="g26dP2fM7fdV6ljGe8Ew-10" value="&lt;div&gt;Wifi Access Point&lt;/div&gt;&lt;div&gt;TAhome&lt;/div&gt;" style="image;html=1;image=img/lib/clip_art/networking/Wireless_Router_128x128.png" parent="1" vertex="1">
          <mxGeometry x="270" y="280" width="80" height="80" as="geometry" />
        </mxCell>
        <mxCell id="g26dP2fM7fdV6ljGe8Ew-12" value="&lt;div&gt;HDHomeRun Prime&lt;/div&gt;&lt;div&gt;&lt;br&gt;&lt;/div&gt;" style="shape=mxgraph.cisco.misc.set_top_box;html=1;pointerEvents=1;dashed=0;fillColor=#036897;strokeColor=#ffffff;strokeWidth=2;verticalLabelPosition=bottom;verticalAlign=top;align=center;outlineConnect=0;" parent="1" vertex="1">
          <mxGeometry x="253" y="170" width="114" height="42" as="geometry" />
        </mxCell>
        <mxCell id="g26dP2fM7fdV6ljGe8Ew-14" value="&lt;div&gt;HDHomeRun 4k&lt;br&gt;&lt;/div&gt;&lt;div&gt;&lt;br&gt;&lt;/div&gt;" style="shape=mxgraph.cisco.misc.set_top_box;html=1;pointerEvents=1;dashed=0;fillColor=#036897;strokeColor=#ffffff;strokeWidth=2;verticalLabelPosition=bottom;verticalAlign=top;align=center;outlineConnect=0;" parent="1" vertex="1">
          <mxGeometry x="500" y="170" width="114" height="42" as="geometry" />
        </mxCell>
        <mxCell id="g26dP2fM7fdV6ljGe8Ew-15" value="Apple TV" style="shape=mxgraph.cisco.misc.set_top_box;html=1;pointerEvents=1;dashed=0;fillColor=#036897;strokeColor=#ffffff;strokeWidth=2;verticalLabelPosition=bottom;verticalAlign=top;align=center;outlineConnect=0;" parent="1" vertex="1">
          <mxGeometry x="640" y="170" width="114" height="42" as="geometry" />
        </mxCell>
        <mxCell id="g26dP2fM7fdV6ljGe8Ew-16" value="&lt;div&gt;Proxmox Server&lt;/div&gt;" style="image;html=1;image=img/lib/clip_art/computers/Server_Tower_128x128.png" parent="1" vertex="1">
          <mxGeometry x="310" y="700" width="80" height="80" as="geometry" />
        </mxCell>
        <mxCell id="g26dP2fM7fdV6ljGe8Ew-21" value="&lt;div&gt;Backup Pi&lt;/div&gt;&lt;div&gt;Server&lt;/div&gt;" style="shape=image;html=1;verticalAlign=top;verticalLabelPosition=bottom;labelBackgroundColor=#ffffff;imageAspect=0;aspect=fixed;image=https://cdn1.iconfinder.com/data/icons/fruit-136/64/Fruit_iconfree_Filled_Outline_raspberry-healthy-organic-food-fruit_icon-128.png" parent="1" vertex="1">
          <mxGeometry x="700" y="516" width="68" height="68" as="geometry" />
        </mxCell>
      </root>
    </mxGraphModel>
  </diagram>
</mxfile>
